<svg xmlns="http://www.w3.org/2000/svg" version="1.1" xmlns:xlink="http://www.w3.org/1999/xlink" xmlns:svgjs="http://svgjs.com/svgjs" width="840.000000pt" height="859.000000pt"><svg version="1.0" xmlns="http://www.w3.org/2000/svg" width="840.000000pt" height="859.000000pt" viewBox="0 0 840.000000 859.000000" preserveAspectRatio="xMidYMid meet">

<g transform="translate(0.000000,859.000000) scale(0.100000,-0.100000)" fill="#000000" stroke="none">
<path d="M4181 8418 c-58 -136 -160 -580 -201 -881 l-12 -89 -30 36 c-16 20
-34 36 -39 36 -15 0 -64 -114 -83 -190 -8 -36 -19 -104 -22 -152 -4 -49 -8
-88 -10 -88 -2 0 -20 11 -40 25 -20 14 -40 25 -44 25 -18 0 -50 -249 -50 -390
0 -47 4 -102 9 -122 5 -21 7 -38 5 -38 -2 0 -38 23 -80 50 -42 28 -80 50 -85
50 -34 0 -27 -276 11 -424 10 -41 28 -93 40 -116 12 -23 20 -44 18 -45 -2 -2
-43 23 -91 56 -49 32 -94 59 -102 59 -22 0 -28 -43 -22 -159 7 -126 36 -245
78 -319 30 -53 30 -54 7 -47 -13 4 -51 22 -85 41 -34 19 -68 34 -76 34 -21 0
-27 -32 -17 -103 19 -130 65 -257 168 -459 9 -19 -30 -4 -102 38 -54 31 -81
43 -89 35 -18 -18 -20 -105 -3 -172 22 -89 77 -192 142 -269 34 -41 50 -66 41
-68 -7 -1 -41 4 -76 12 -35 8 -69 12 -77 9 -36 -14 5 -155 97 -332 32 -63 57
-116 55 -119 -3 -2 -29 8 -59 23 -69 36 -87 30 -87 -29 0 -92 68 -257 154
-374 25 -34 46 -64 46 -67 0 -3 -21 -5 -47 -5 -96 0 -95 -13 12 -245 41 -90
75 -170 75 -179 0 -31 -31 -15 -58 29 -15 25 -33 45 -41 45 -8 0 -29 -14 -47
-31 l-31 -30 -21 90 c-24 102 -85 231 -132 279 -34 33 -58 41 -64 20 -2 -7 -9
-32 -15 -55 -7 -24 -15 -43 -19 -43 -4 0 -17 30 -30 68 -32 93 -106 243 -131
266 -27 24 -46 16 -70 -32 -11 -21 -26 -44 -35 -51 -13 -11 -16 -7 -21 26 -18
108 -29 146 -59 209 -38 79 -76 128 -117 149 -37 20 -36 20 -44 -17 -15 -75
-37 -140 -44 -132 -5 5 -16 34 -26 64 -24 75 -58 140 -121 237 -61 92 -100
129 -119 113 -7 -6 -18 -37 -25 -70 -7 -33 -18 -68 -25 -77 -12 -15 -14 -12
-25 27 -7 25 -28 72 -48 105 -56 93 -222 250 -222 209 0 -11 -21 -150 -26
-174 -5 -22 -9 -18 -33 35 -58 127 -275 354 -307 322 -3 -3 -11 -39 -17 -79
l-10 -73 -72 70 c-68 66 -223 185 -273 208 -28 13 -32 8 -39 -42 l-5 -40 -62
49 c-68 56 -186 118 -240 127 l-36 6 0 -41 0 -41 -80 55 c-187 129 -592 353
-664 366 l-25 5 15 -36 c46 -109 240 -388 413 -595 l81 -96 -46 0 c-42 0 -45
-1 -38 -22 24 -78 99 -189 172 -255 l47 -42 -48 -11 c-26 -7 -47 -16 -47 -20
0 -32 231 -271 295 -305 19 -11 35 -22 35 -26 0 -4 -19 -9 -42 -13 -67 -11
-118 -28 -118 -40 0 -13 97 -109 155 -153 58 -44 163 -100 215 -113 53 -14 46
-20 -63 -48 -44 -11 -82 -23 -85 -27 -4 -4 26 -38 66 -76 80 -75 230 -159 284
-159 48 0 28 -23 -43 -48 -87 -32 -91 -37 -48 -75 69 -60 257 -142 393 -172
25 -5 27 -8 15 -19 -8 -8 -44 -24 -81 -36 -38 -12 -68 -27 -68 -35 0 -21 72
-80 131 -107 65 -30 128 -46 229 -56 l75 -7 -57 -43 c-39 -28 -55 -47 -52 -57
10 -25 143 -84 257 -113 59 -15 106 -31 104 -37 -2 -5 -23 -17 -48 -25 -24 -9
-45 -22 -47 -31 -9 -50 189 -139 352 -156 l69 -8 -27 -32 c-51 -60 -30 -77
160 -133 93 -26 114 -36 123 -56 6 -14 11 -27 11 -29 0 -11 -31 -3 -105 30
-44 19 -93 35 -109 35 -29 0 -29 0 -22 -50 4 -27 4 -50 0 -50 -3 0 -24 16 -47
35 -22 19 -65 44 -94 55 -51 19 -133 27 -146 14 -3 -3 8 -26 24 -52 16 -25 27
-47 25 -49 -1 -2 -32 10 -67 26 -108 48 -259 78 -259 50 0 -6 12 -30 26 -55
14 -24 24 -44 21 -44 -2 0 -26 10 -53 22 -36 16 -76 23 -153 26 -115 5 -110
11 -58 -66 16 -24 27 -45 24 -48 -2 -2 -19 2 -38 10 -72 30 -289 43 -289 17 0
-3 11 -23 25 -43 14 -20 25 -39 25 -41 0 -2 -37 -4 -82 -5 -89 -1 -218 -19
-218 -31 0 -3 7 -16 15 -27 14 -21 13 -21 -56 -27 -43 -4 -91 -16 -126 -32
l-56 -25 22 -24 21 -23 -87 -13 c-119 -17 -354 -73 -428 -101 l-60 -22 43 -19
c50 -22 268 -71 387 -87 155 -22 149 -20 131 -40 -13 -15 -14 -20 -4 -29 24
-19 122 -42 181 -42 l59 0 -16 -25 c-9 -14 -14 -29 -12 -34 8 -13 103 -23 211
-22 l94 0 -25 -36 c-42 -62 -37 -66 69 -61 81 5 144 20 220 53 13 6 9 -7 -18
-51 -19 -33 -35 -62 -35 -66 0 -13 110 -9 172 6 31 7 72 22 92 34 41 25 46 14
16 -36 -33 -54 -28 -65 28 -57 60 9 187 50 231 76 18 11 36 18 38 15 3 -2 -7
-24 -21 -49 -14 -24 -23 -47 -19 -50 3 -4 27 -7 52 -7 53 0 127 32 185 79 21
17 42 31 46 31 4 0 4 -17 -1 -37 -4 -21 -4 -42 0 -46 15 -15 79 4 166 48 47
23 85 38 85 33 0 -5 -7 -22 -15 -39 -13 -24 -13 -30 -2 -35 37 -14 173 38 235
90 16 15 32 26 35 26 3 0 7 -15 9 -32 3 -30 6 -33 35 -33 18 0 40 -8 50 -17
16 -17 16 -18 -12 -18 -64 0 -165 -44 -165 -71 0 -6 14 -15 30 -20 17 -6 30
-14 30 -18 0 -4 -21 -13 -47 -20 -56 -14 -145 -61 -151 -78 -2 -7 1 -13 7 -13
5 0 22 -5 38 -11 l28 -11 -47 -18 c-48 -18 -128 -75 -128 -90 0 -5 19 -15 42
-22 l42 -14 -54 -26 c-30 -14 -75 -43 -100 -66 l-45 -40 30 -7 c17 -4 33 -9
36 -11 4 -2 -24 -36 -62 -75 -70 -72 -81 -89 -54 -89 20 0 19 -14 -2 -31 -18
-15 -73 -98 -73 -111 0 -4 7 -8 15 -8 22 0 19 -7 -28 -63 -41 -49 -115 -155
-166 -240 l-23 -37 25 9 c51 20 155 76 245 132 78 50 92 55 92 39 0 -11 2 -20
5 -20 15 0 83 34 111 55 32 24 33 24 39 5 6 -19 7 -19 33 -3 15 9 53 39 85 66
52 44 57 46 57 25 0 -13 5 -30 10 -38 8 -12 18 -6 60 35 27 27 58 66 69 87 20
40 31 40 31 -1 0 -55 15 -55 68 3 28 31 53 69 57 86 8 38 21 31 30 -16 6 -36
7 -36 27 -17 28 25 68 89 89 143 l17 45 11 -28 c6 -16 11 -35 11 -43 0 -11 4
-12 19 -5 28 15 53 60 71 124 16 58 16 58 30 33 7 -14 17 -26 21 -26 13 0 47
54 67 106 20 51 35 60 40 24 8 -48 63 19 88 107 15 51 28 66 36 41 9 -25 36 3
56 59 26 70 41 94 49 76 18 -46 52 24 68 140 6 47 7 48 25 32 18 -17 20 -16
29 6 6 13 22 71 36 129 30 120 55 203 61 197 2 -2 -3 -64 -12 -138 -26 -210
-24 -510 4 -764 15 -133 25 -277 25 -392 l2 -183 38 0 37 0 0 173 c-1 109 -8
233 -21 337 -29 246 -35 506 -15 735 20 228 26 272 36 254 4 -8 27 -79 50
-159 57 -198 74 -234 95 -200 14 22 23 7 29 -52 11 -95 40 -151 61 -118 11 18
21 3 45 -62 30 -84 38 -93 61 -72 15 14 19 14 23 3 2 -8 12 -37 21 -66 18 -57
51 -106 68 -100 6 2 14 14 18 28 l6 24 13 -30 c61 -143 76 -158 100 -107 l13
27 7 -25 c4 -14 13 -45 21 -69 7 -23 26 -57 42 -75 l30 -31 9 30 c5 17 12 37
14 45 3 8 15 -9 28 -40 26 -66 84 -153 96 -145 5 3 11 19 15 35 8 36 21 39 29
6 6 -24 105 -140 113 -133 2 2 7 24 11 48 l8 44 18 -34 c19 -36 113 -141 126
-141 4 0 11 16 15 36 l6 37 37 -35 c20 -19 58 -49 84 -67 45 -30 47 -30 53
-11 6 19 7 19 39 -5 28 -21 96 -55 111 -55 3 0 5 9 5 19 0 17 15 11 93 -39
113 -71 244 -137 253 -127 9 8 -82 147 -159 242 -61 75 -66 85 -42 85 8 0 15
4 15 8 0 13 -55 96 -73 111 -21 17 -22 31 -2 31 28 0 15 21 -54 91 -44 46 -63
72 -55 75 8 2 21 6 29 9 8 2 15 9 15 14 0 15 -99 87 -145 107 l-40 17 48 14
c41 12 46 17 36 30 -21 24 -97 73 -137 87 l-37 14 28 11 c16 6 33 11 38 11 46
0 -66 72 -143 92 -51 13 -58 29 -17 38 13 3 24 12 24 20 0 22 -77 60 -135 67
-49 6 -50 7 -34 25 10 10 28 17 43 16 19 -2 26 2 29 17 8 45 11 45 77 1 38
-26 93 -51 131 -62 78 -21 94 -13 69 36 -9 17 -15 33 -13 35 2 2 44 -17 94
-42 49 -24 106 -45 125 -46 l34 -2 -3 49 -4 49 43 -36 c66 -57 134 -87 196
-87 29 0 53 3 53 6 0 3 -12 26 -26 50 -15 25 -24 47 -22 50 3 2 39 -12 81 -31
70 -32 179 -65 220 -65 23 0 22 28 -3 65 -32 49 -25 57 28 30 26 -14 71 -29
101 -35 63 -12 151 -13 151 -2 0 4 -16 33 -35 66 -27 44 -31 57 -18 51 75 -33
140 -48 226 -52 53 -3 97 -2 97 2 0 5 -11 27 -25 51 l-25 42 99 0 c93 0 186 9
204 19 4 2 0 14 -8 26 -8 12 -15 24 -15 28 0 3 33 9 73 12 72 5 129 19 157 36
12 8 12 13 -4 30 -18 19 -17 20 16 25 286 44 436 75 513 106 l30 13 -45 20
c-57 26 -277 80 -414 103 -58 9 -106 20 -106 24 0 4 7 13 15 20 12 10 13 16 4
26 -16 20 -134 54 -185 54 -48 0 -50 1 -32 30 7 10 10 22 7 24 -12 12 -119 26
-206 28 -51 1 -93 3 -93 6 0 2 11 17 25 34 14 16 25 36 25 43 0 34 -198 24
-286 -15 -24 -10 -44 -17 -44 -14 0 3 16 28 35 57 19 28 35 55 35 59 0 5 -35
8 -78 8 -75 0 -173 -21 -200 -42 -23 -19 -24 -1 -3 41 12 22 21 45 21 51 0 26
-172 -10 -262 -55 -28 -14 -53 -23 -56 -21 -2 3 7 25 22 50 14 24 26 48 26 52
0 4 -30 5 -67 2 -75 -5 -131 -29 -188 -79 -20 -18 -38 -29 -41 -26 -3 3 -1 22
5 44 6 21 11 42 11 47 0 18 -93 -5 -163 -39 -75 -37 -96 -35 -76 7 10 22 30
31 138 63 129 38 181 59 181 74 0 4 -14 26 -31 47 l-31 39 69 6 c135 13 279
66 332 122 30 33 25 46 -29 66 -24 9 -45 21 -47 26 -2 6 34 18 79 29 153 34
278 91 278 128 0 9 -24 33 -52 54 l-53 39 83 7 c90 7 175 29 235 59 47 24 117
87 117 104 0 8 -17 19 -37 25 -79 24 -123 42 -123 51 0 5 9 9 21 9 72 0 351
125 406 182 33 34 28 40 -56 70 -68 24 -91 48 -47 48 38 0 127 36 192 79 83
53 172 137 159 150 -5 5 -42 19 -82 30 -108 29 -116 37 -63 51 56 15 108 41
185 93 71 48 185 155 185 173 0 8 -31 20 -80 31 -83 18 -95 27 -58 39 40 12
308 285 308 313 0 5 -20 14 -45 20 l-45 11 58 58 c75 73 162 209 162 253 0 5
-21 9 -46 9 l-46 0 52 57 c169 185 474 633 448 658 -9 10 -138 -43 -248 -102
-137 -74 -280 -160 -407 -245 l-103 -68 0 41 0 42 -37 -6 c-55 -9 -191 -81
-250 -132 l-51 -45 -7 45 c-3 25 -9 45 -13 45 -31 -1 -228 -146 -313 -230
l-57 -56 -10 74 c-6 40 -13 76 -15 79 -14 13 -55 -15 -126 -85 -82 -81 -149
-173 -184 -250 l-21 -47 -8 50 c-18 113 -30 155 -44 155 -23 0 -157 -138 -201
-207 -22 -34 -46 -84 -52 -110 -11 -43 -14 -46 -26 -30 -7 9 -18 44 -24 76
-16 84 -29 90 -78 38 -22 -23 -54 -63 -72 -89 -42 -63 -119 -223 -127 -264 -3
-19 -10 -34 -14 -34 -10 0 -27 51 -36 106 -9 62 -16 69 -52 50 -39 -20 -85
-78 -121 -157 -28 -57 -38 -96 -56 -202 -7 -45 -16 -42 -51 23 -18 32 -34 50
-46 50 -33 0 -108 -135 -157 -283 -13 -37 -26 -67 -30 -67 -4 0 -15 25 -25 55
-9 30 -21 55 -26 55 -24 0 -82 -68 -118 -138 -39 -75 -64 -147 -77 -226 l-6
-39 -33 32 c-17 17 -38 31 -45 31 -15 0 -50 -40 -51 -57 0 -11 -30 -33 -44
-33 -16 0 0 46 69 195 106 229 107 245 19 245 -22 0 -43 3 -47 6 -3 3 15 34
40 67 85 116 153 281 153 373 0 59 -18 65 -87 29 -30 -15 -56 -25 -59 -23 -2
3 23 56 55 119 61 116 111 249 111 291 0 49 -12 54 -89 34 -38 -10 -75 -16
-82 -14 -7 2 9 28 39 62 115 131 197 374 149 439 -11 16 -19 14 -92 -28 -74
-42 -112 -56 -103 -37 69 134 112 235 132 305 47 162 54 257 19 257 -9 0 -41
-15 -72 -34 -31 -19 -69 -38 -84 -41 l-28 -7 36 65 c45 82 75 217 75 344 0 97
-5 123 -24 123 -6 0 -51 -27 -100 -60 -49 -34 -91 -59 -93 -56 -2 2 5 23 17
46 12 23 30 76 41 118 36 143 45 408 13 419 -6 2 -45 -19 -88 -47 -42 -27 -78
-50 -80 -50 -2 0 0 17 5 38 5 20 9 75 9 122 0 141 -32 390 -50 390 -4 0 -24
-11 -44 -25 -20 -14 -38 -25 -40 -25 -2 0 -6 39 -10 86 -4 47 -16 119 -26 159
-20 79 -66 185 -80 185 -5 0 -22 -17 -39 -37 -17 -21 -31 -31 -31 -24 0 30
-33 235 -61 381 -55 283 -130 560 -163 605 -14 19 -15 18 -35 -27z m33 -1090
c-4 -6 -3 -8 3 -5 6 4 18 -9 29 -28 12 -23 34 -42 66 -57 26 -12 50 -28 53
-36 3 -8 0 -10 -8 -6 -9 6 -9 5 0 -7 8 -10 11 -45 9 -102 -1 -48 -1 -85 2 -82
2 2 15 -17 28 -43 15 -30 40 -58 69 -77 27 -18 45 -38 45 -50 5 -104 1 -177
-9 -170 -6 3 -8 -6 -5 -20 2 -14 0 -33 -5 -43 -6 -11 -6 -24 -1 -32 5 -9 4
-20 -3 -29 -9 -12 -9 -13 1 -7 8 5 12 1 12 -10 0 -9 11 -36 25 -59 13 -23 21
-46 17 -50 -4 -3 -2 -5 3 -4 15 4 115 -62 115 -76 0 -24 -43 -115 -52 -109 -4
3 -7 2 -6 -3 1 -4 -3 -30 -10 -58 -6 -27 -9 -68 -6 -90 3 -22 6 -50 7 -62 1
-11 5 -19 9 -17 4 3 14 -8 22 -23 7 -16 23 -37 35 -47 11 -10 18 -23 14 -29
-3 -5 -1 -7 5 -3 6 3 26 -3 46 -15 34 -20 35 -21 20 -45 -9 -13 -19 -24 -23
-24 -10 0 -15 -38 -15 -127 0 -66 3 -86 18 -102 11 -12 15 -21 11 -21 -9 0 63
-69 88 -85 14 -9 15 -13 2 -40 -8 -16 -26 -48 -40 -70 -57 -89 -68 -148 -43
-224 10 -30 23 -60 29 -67 6 -8 9 -14 5 -14 -3 0 11 -15 32 -34 36 -34 36 -34
18 -55 -10 -11 -23 -18 -29 -14 -6 3 -7 1 -3 -5 3 -6 0 -14 -8 -19 -8 -4 -15
-11 -15 -16 0 -4 -9 -19 -18 -34 -23 -35 -28 -161 -8 -200 8 -14 11 -31 8 -37
-3 -6 -3 -8 2 -4 9 8 52 -42 47 -55 -1 -5 2 -6 7 -3 16 11 22 -11 10 -38 -7
-14 -17 -23 -23 -19 -6 3 -8 3 -4 -2 4 -4 -5 -30 -20 -58 -31 -61 -34 -69 -32
-124 1 -50 22 -105 57 -151 23 -31 24 -35 9 -51 -9 -10 -16 -22 -16 -28 0 -5
-9 -18 -21 -29 -12 -10 -28 -31 -35 -47 -9 -16 -20 -25 -26 -21 -6 4 -9 3 -6
-2 3 -5 0 -36 -7 -69 -7 -34 -8 -65 -4 -71 5 -6 10 -27 11 -47 2 -20 7 -37 12
-37 4 0 5 -7 2 -16 -3 -8 -2 -12 3 -9 5 3 13 -4 16 -16 5 -14 -5 -45 -29 -94
-20 -41 -43 -101 -52 -135 -14 -54 -14 -65 1 -117 9 -32 16 -63 17 -70 1 -7 5
-10 10 -7 4 3 8 2 8 -3 0 -10 63 -77 76 -80 5 -1 29 -10 54 -19 34 -12 63 -14
115 -9 39 3 95 7 127 8 31 1 54 5 51 10 -4 6 27 11 64 10 7 -1 11 3 8 7 -2 4
13 16 34 28 21 12 50 39 64 59 23 34 32 61 51 153 4 18 12 26 30 28 39 3 50 6
64 20 7 6 19 12 26 12 7 0 29 15 49 34 20 18 38 31 41 29 2 -2 3 4 3 14 -1 10
3 17 8 16 6 -1 12 12 13 29 4 50 24 83 52 85 61 5 83 11 121 36 22 15 46 27
52 27 5 0 8 3 4 6 -3 3 8 27 24 52 16 25 29 56 29 68 0 13 5 26 10 29 6 4 8
11 5 16 -4 5 7 9 23 9 16 0 48 6 70 14 22 8 44 11 48 8 4 -4 4 -1 0 6 -7 11 5
17 27 13 5 -1 6 3 2 9 -3 5 2 10 11 10 10 0 15 3 11 6 -3 3 3 15 13 26 20 21
60 100 60 117 0 5 4 21 10 35 8 22 12 24 39 16 20 -5 48 -4 80 5 27 7 52 10
55 7 3 -3 6 -1 6 4 0 5 18 20 40 34 22 14 40 30 40 37 0 7 4 13 10 13 5 0 12
11 16 25 7 30 29 49 45 40 15 -10 103 -10 118 0 7 4 19 4 27 1 8 -3 12 -1 9 4
-3 5 6 12 20 16 37 9 98 84 119 146 l18 53 104 -2 c57 -1 102 2 100 6 -3 4 14
17 38 29 23 13 50 37 60 54 11 17 39 50 63 74 42 42 45 43 96 38 28 -3 60 -7
70 -9 9 -2 17 2 17 8 0 6 3 7 7 4 3 -4 12 -2 20 5 7 6 16 8 19 5 5 -5 43 26
105 85 15 14 25 15 78 5 l61 -12 -1 -35 c-1 -19 4 -48 10 -64 10 -26 9 -30
-11 -44 -76 -52 -128 -146 -128 -231 0 -46 -28 -91 -57 -91 -8 0 -11 -4 -8
-10 3 -5 -6 -12 -20 -16 -14 -3 -25 -10 -25 -15 0 -5 -7 -9 -15 -9 -19 0 -87
-82 -102 -123 -6 -18 -12 -62 -12 -99 l-1 -66 -49 -12 c-67 -16 -135 -61 -165
-108 -26 -41 -51 -148 -40 -175 4 -11 -7 -21 -42 -37 -27 -11 -51 -24 -54 -28
-3 -4 -17 -17 -31 -27 -25 -20 -29 -26 -29 -46 0 -5 -4 -8 -8 -5 -5 3 -9 0 -9
-7 -1 -11 -22 -119 -28 -143 -2 -6 -24 -14 -50 -17 -92 -13 -196 -83 -211
-142 -3 -14 -9 -23 -13 -20 -4 2 -7 -4 -7 -13 0 -65 -3 -69 -39 -67 -19 0 -35
-3 -35 -7 0 -4 -3 -7 -7 -6 -15 5 -88 -30 -107 -51 -10 -11 -23 -18 -29 -14
-6 3 -7 1 -3 -5 4 -7 2 -12 -3 -12 -6 0 -10 -3 -9 -7 1 -5 -10 -32 -25 -61
-14 -29 -23 -60 -20 -68 6 -15 -5 -21 -60 -29 -41 -5 -92 -28 -102 -45 -4 -6
-12 -7 -18 -4 -7 4 -9 4 -5 -1 4 -4 -6 -23 -22 -42 -16 -18 -35 -53 -41 -77
-10 -40 -13 -43 -47 -44 -55 -2 -142 -22 -142 -33 0 -5 -6 -9 -14 -9 -16 0
-96 -91 -96 -109 0 -6 -4 -11 -9 -11 -5 0 -8 -7 -7 -16 1 -11 -16 -21 -56 -34
-71 -22 -114 -48 -157 -97 -18 -21 -33 -39 -32 -41 1 -1 -7 -27 -18 -58 -42
-110 -19 -200 72 -288 29 -28 57 -51 62 -52 47 -3 94 -18 88 -28 -4 -7 -1 -6
9 1 8 7 17 10 20 7 4 -3 22 -1 42 5 29 7 45 6 74 -7 37 -16 154 -33 147 -21
-3 3 13 11 35 18 33 10 45 9 70 -4 32 -16 160 -27 160 -14 0 5 16 11 35 15 26
4 43 1 63 -12 33 -22 43 -25 112 -26 42 0 62 -6 83 -24 16 -13 33 -24 38 -24
6 0 8 -4 5 -9 -4 -5 2 -7 13 -4 10 3 21 1 24 -4 4 -6 39 -6 87 -1 70 8 83 7
98 -8 36 -37 101 -56 176 -52 68 3 73 2 113 -31 l42 -34 -35 -23 c-19 -13 -39
-24 -45 -24 -6 0 -8 -4 -5 -9 4 -5 -8 -7 -26 -3 -96 18 -192 -3 -242 -53 -9
-9 -16 -12 -16 -7 0 10 -16 13 -95 17 -46 1 -71 -3 -107 -21 -26 -13 -49 -28
-53 -34 -3 -5 -11 -10 -16 -10 -6 0 -8 3 -6 8 16 24 -157 -11 -187 -39 -5 -4
-23 -1 -40 8 -39 20 -152 23 -188 5 -29 -14 -68 -8 -68 9 0 6 -4 7 -10 4 -6
-3 -15 -3 -21 1 -15 9 -98 11 -102 2 -1 -4 -13 -9 -27 -12 -14 -2 -33 -7 -43
-11 -9 -4 -24 -2 -32 5 -8 7 -15 9 -15 5 0 -4 -6 -3 -12 2 -7 5 -35 11 -63 12
-27 2 -54 5 -59 8 -5 4 -6 0 -1 -7 6 -10 1 -12 -18 -8 -15 3 -24 1 -21 -3 8
-14 -3 -11 -58 18 -55 29 -105 32 -183 11 -22 -5 -42 -11 -45 -11 -9 -2 -53
-41 -74 -66 -12 -13 -34 -36 -50 -50 -16 -14 -35 -32 -43 -40 -20 -20 -63
-108 -56 -115 4 -3 2 -6 -3 -6 -13 0 -9 -84 6 -122 26 -65 65 -116 108 -139
23 -13 48 -35 54 -50 11 -24 72 -73 93 -74 6 0 10 -5 10 -10 0 -6 16 -31 36
-55 33 -42 85 -135 69 -125 -4 2 -21 7 -39 10 -34 6 -81 32 -81 45 0 4 -16 11
-35 14 -19 4 -35 11 -35 17 0 5 -9 19 -20 31 -10 12 -16 26 -13 32 3 6 2 8 -2
3 -5 -4 -21 4 -36 19 -15 14 -31 26 -36 25 -12 -1 -81 77 -74 85 3 3 1 5 -4 3
-6 -1 -19 2 -30 6 -24 10 -150 138 -172 175 -8 14 -31 37 -50 50 -19 13 -40
35 -48 49 -7 14 -22 35 -34 45 -12 11 -21 31 -21 45 0 38 -43 121 -79 156 -21
19 -37 49 -47 85 -9 30 -22 74 -30 98 -8 24 -11 49 -8 55 4 7 4 9 -1 5 -4 -4
-19 16 -34 45 -61 120 -199 169 -322 114 -46 -20 -99 -37 -99 -31 0 3 -18 -11
-39 -31 -34 -31 -48 -55 -92 -146 -4 -9 -11 -33 -14 -53 -4 -20 -10 -36 -14
-36 -4 0 -8 -14 -9 -31 -2 -29 -17 -68 -31 -79 -30 -24 -61 -78 -70 -121 -7
-32 -23 -65 -41 -86 -17 -18 -30 -40 -30 -48 0 -7 -9 -16 -19 -20 -23 -7 -101
-89 -101 -107 -1 -7 -15 -22 -33 -33 -17 -11 -41 -34 -52 -51 -11 -17 -38 -41
-61 -53 -23 -12 -54 -40 -70 -61 -16 -21 -44 -46 -62 -56 -19 -10 -46 -32 -61
-50 -14 -17 -41 -39 -59 -48 -18 -9 -42 -26 -52 -36 -11 -11 -30 -22 -42 -24
-13 -3 -34 -8 -48 -11 -14 -3 -19 -3 -12 1 6 3 9 11 5 17 -4 7 0 8 12 3 15 -5
16 -4 5 9 -10 12 -8 21 11 50 13 19 27 35 32 35 4 0 15 16 24 35 9 19 24 37
34 40 21 7 99 81 99 94 0 5 9 12 20 16 21 7 107 75 94 75 -4 0 0 8 9 18 21 23
40 98 38 147 -1 22 -11 60 -23 85 -27 59 -188 215 -237 231 -20 6 -40 14 -45
17 -28 16 -139 -2 -176 -28 -23 -16 -31 -17 -80 -6 -45 10 -64 10 -105 -1 -69
-20 -73 -20 -129 -4 -40 12 -60 12 -110 2 -70 -14 -120 -15 -124 -3 -4 14
-151 5 -176 -11 -21 -14 -48 -9 -66 12 -9 10 -33 14 -105 17 -38 2 -74 3 -78
3 -4 1 -20 13 -34 29 -15 15 -22 20 -18 12 7 -12 6 -13 -6 -3 -9 7 -33 15 -54
18 -21 2 -40 6 -42 9 -3 2 -27 -2 -55 -10 -43 -13 -52 -13 -66 -1 -50 41 -157
62 -234 45 -15 -4 -30 -2 -34 3 -3 5 -24 21 -46 35 l-40 26 33 21 c19 11 37
20 41 19 5 -1 7 4 5 11 -1 9 17 11 73 9 79 -4 147 13 183 46 16 14 35 16 106
14 74 -2 93 1 134 21 27 13 48 28 48 33 -1 5 23 10 53 10 30 1 67 5 83 9 15 5
31 8 36 7 4 -1 7 3 7 9 0 5 4 8 9 5 5 -3 11 1 15 9 4 12 10 12 43 -2 49 -20
137 -20 186 1 29 11 44 13 58 5 20 -10 153 -29 144 -20 -9 9 69 33 103 32 19
-1 43 -6 54 -12 11 -6 18 -7 15 -2 -4 6 7 10 23 11 16 0 49 10 74 20 24 11 48
17 53 14 4 -4 5 -3 1 1 -3 5 11 24 31 42 33 30 52 62 77 130 9 26 6 80 -8 130
-7 22 -12 42 -12 45 -1 3 -14 26 -29 52 -17 30 -44 57 -72 74 -25 14 -45 29
-45 32 0 4 -13 7 -28 8 -36 1 -88 27 -85 42 2 7 -1 12 -6 12 -5 0 -13 9 -16
21 -10 29 -74 99 -92 99 -8 0 -11 5 -8 10 4 6 3 10 -2 9 -23 -4 -53 2 -49 10
4 5 -4 7 -16 3 -11 -3 -19 -1 -15 4 3 5 -17 8 -46 6 l-52 -3 -18 60 c-11 33
-26 62 -34 65 -9 4 -13 13 -9 22 3 8 2 13 -3 10 -4 -3 -18 4 -29 15 -12 11
-22 17 -22 14 0 -3 -11 2 -24 11 -14 8 -46 19 -72 22 -46 7 -47 7 -59 57 -7
27 -11 54 -7 60 3 5 1 7 -3 2 -10 -9 -46 43 -39 55 3 5 1 7 -5 6 -5 -2 -27 13
-47 32 -21 19 -34 28 -29 20 7 -13 6 -13 -7 -2 -18 14 -43 20 -98 24 -37 2
-50 22 -25 40 6 5 5 8 -2 8 -7 0 -13 8 -13 18 0 25 -53 103 -87 128 -41 30
-54 35 -135 53 -58 12 -77 24 -58 36 6 4 8 11 4 16 -3 5 -8 21 -10 36 -14 78
-69 148 -141 183 l-48 22 -1 62 c0 35 -8 74 -17 92 -9 17 -13 35 -9 39 4 5 2
5 -4 2 -6 -3 -17 4 -23 17 -17 30 -95 80 -134 84 -59 7 -67 17 -67 85 0 75
-34 152 -83 192 -18 14 -39 31 -47 38 -8 6 -18 11 -22 10 -5 -2 -8 2 -8 9 0 6
-3 8 -7 4 -10 -10 -83 65 -76 78 12 19 3 79 -20 139 -12 31 -25 57 -29 57 -14
0 -98 89 -90 94 5 3 8 30 7 60 l-3 54 42 5 c22 2 52 7 64 10 19 5 34 -3 70
-37 62 -58 127 -80 210 -72 34 4 62 3 62 -2 0 -5 11 -15 25 -22 13 -7 22 -17
19 -22 -3 -4 2 -8 11 -8 8 0 20 -11 25 -26 12 -31 63 -79 111 -104 28 -15 55
-18 122 -17 47 1 85 0 84 -3 0 -3 7 -22 16 -44 9 -21 14 -43 10 -50 -3 -6 -3
-8 2 -4 4 4 18 -6 31 -23 13 -17 40 -43 61 -57 21 -14 40 -28 43 -32 3 -4 44
-6 92 -6 l87 1 20 -35 c19 -32 102 -131 87 -103 -4 8 3 7 22 -2 15 -8 60 -17
99 -21 67 -6 73 -9 83 -35 7 -16 9 -36 6 -46 -4 -10 -4 -14 0 -11 3 4 17 -14
30 -40 13 -26 37 -56 53 -67 16 -10 27 -23 25 -27 -3 -4 1 -5 8 -3 8 3 23 -2
33 -12 11 -10 36 -19 55 -19 19 -1 40 -2 46 -3 6 0 17 -26 24 -56 7 -30 21
-62 32 -71 10 -10 18 -22 18 -28 0 -21 106 -76 161 -83 l53 -8 12 -48 c26
-104 120 -185 216 -187 25 0 27 -4 34 -57 4 -32 7 -63 8 -69 1 -7 8 -19 15
-28 7 -8 10 -20 6 -26 -4 -6 -2 -9 3 -8 6 2 23 -11 39 -29 32 -35 131 -74 179
-69 16 1 37 -1 47 -6 22 -11 197 -26 191 -17 -3 6 34 21 59 23 17 2 88 82 107
121 21 43 34 179 16 168 -5 -4 -7 3 -4 15 3 12 2 22 -2 24 -5 2 -10 12 -12 23
-1 11 -6 22 -9 25 -4 3 -18 32 -33 64 -23 51 -26 63 -15 87 6 16 14 27 18 25
4 -3 8 3 9 12 14 127 14 144 -3 190 -10 25 -29 58 -43 72 -13 14 -35 42 -49
63 l-26 38 20 22 c81 88 84 196 11 319 l-41 69 31 32 c50 53 72 105 72 170 0
32 -5 67 -11 78 -6 11 -12 30 -14 41 -3 12 -24 39 -49 61 l-44 40 35 30 c71
63 100 182 67 272 -9 22 -16 45 -16 52 -1 7 -5 10 -9 7 -7 -4 -41 48 -44 66 0
3 -6 15 -13 27 -10 19 -10 24 7 32 10 6 21 8 25 6 3 -3 4 -3 2 0 -2 3 10 20
25 36 50 53 71 114 67 196 -2 39 -5 69 -7 67 -2 -2 -15 15 -28 37 -13 23 -22
42 -21 43 2 1 21 10 42 21 22 11 44 19 49 17 5 -1 6 2 2 8 -3 5 -2 10 3 10 5
0 17 15 27 34 11 19 24 32 29 29 6 -4 8 -3 4 2 -4 4 -2 17 4 29 7 11 11 29 9
40 -2 13 1 16 11 11 10 -6 10 -5 1 5 -7 8 -8 22 -3 41 5 18 5 27 -1 24 -5 -4
-9 0 -9 8 0 8 -13 43 -29 78 -16 35 -32 78 -36 96 -6 29 -3 33 32 51 79 41
119 99 129 185 3 28 7 58 10 65 2 7 -1 10 -6 7 -6 -3 -11 0 -11 7 -1 7 -3 24
-5 38 -2 14 -4 61 -4 104 0 77 10 104 34 89 5 -3 7 -2 4 3 -4 5 9 20 26 34 49
37 79 110 78 195 0 39 5 76 12 84 8 12 8 13 -1 7 -14 -8 -17 3 -5 19 4 6 23
19 42 29 41 23 85 69 102 108 10 22 14 24 21 13 4 -9 5 -20 1 -27z"></path>
</g>
</svg><style>@media (prefers-color-scheme: light) { :root { filter: none; } }
@media (prefers-color-scheme: dark) { :root { filter: invert(100%); } }
</style></svg>